# xmcd CD database file
#
# Track frame offsets:
#	150
#	10895
#	25655
#	38460
#	51542
#	63515
#	75035
#	88417
#	97955
#	110979
#
# Disc length: 1625 seconds
#
# Revision: 0
# Processed by: cddbd v1.5.1PL0 Copyright (c) Steve Scherf et al.
# Submitted via: CDex 1.50
#
DISCID=7506570a
DTITLE=Paul Dwayne - Ma P'tite Guitare
DYEAR=2003
DGENRE=Country
TTITLE0=Ma p'tite Guitare
TTITLE1=Oh Papa
TTITLE2=J'ai connu un madelinot
TTITLE3=La seule que j'ai toujours aimée
TTITLE4=Jeannie
TTITLE5=Chuckwagon Country
TTITLE6=Assis sur les genoux à mon père
TTITLE7=La pêche au mois d'Août
TTITLE8=Nos coeurs tiennent leurs mains
TTITLE9=Le vieux Montréal
EXTD=YEAR: 2003
EXTT0=
EXTT1=
EXTT2=
EXTT3=
EXTT4=
EXTT5=
EXTT6=
EXTT7=
EXTT8=
EXTT9=
PLAYORDER=
